<svg xmlns="http://www.w3.org/2000/svg" viewBox="0 0 512 512">
  <rect width="512" height="512" rx="96" fill="#002868"/>
  <!-- Flag stripes -->
  <rect x="128" y="160" width="256" height="192" rx="6" fill="#BF0A30"/>
  <rect x="128" y="178" width="256" height="21" fill="white"/>
  <rect x="128" y="221" width="256" height="21" fill="white"/>
  <rect x="128" y="264" width="256" height="21" fill="white"/>
  <rect x="128" y="307" width="256" height="21" fill="white"/>
  <!-- Blue canton -->
  <rect x="128" y="160" width="110" height="88" rx="0" fill="#002868"/>
  <!-- Stars (3x3 simplified grid) -->
  <circle cx="155" cy="182" r="5" fill="white"/>
  <circle cx="183" cy="182" r="5" fill="white"/>
  <circle cx="211" cy="182" r="5" fill="white"/>
  <circle cx="169" cy="200" r="5" fill="white"/>
  <circle cx="197" cy="200" r="5" fill="white"/>
  <circle cx="155" cy="218" r="5" fill="white"/>
  <circle cx="183" cy="218" r="5" fill="white"/>
  <circle cx="211" cy="218" r="5" fill="white"/>
  <circle cx="169" cy="236" r="5" fill="white"/>
  <circle cx="197" cy="236" r="5" fill="white"/>
  <!-- Flag pole -->
  <rect x="120" y="144" width="8" height="230" rx="4" fill="#888"/>
</svg>
